<?xml version="1.0" encoding="utf-8"?>
<!-- Generator: Adobe Illustrator 18.0.0, SVG Export Plug-In . SVG Version: 6.00 Build 0)  -->
<!DOCTYPE svg PUBLIC "-//W3C//DTD SVG 1.1//EN" "http://www.w3.org/Graphics/SVG/1.1/DTD/svg11.dtd">
<svg version="1.1" id="Layer_1" xmlns="http://www.w3.org/2000/svg" xmlns:xlink="http://www.w3.org/1999/xlink" x="0px" y="0px"
	 viewBox="0 0 100 100" enable-background="new 0 0 100 100" xml:space="preserve">
<title>Typo Copy</title>
<desc>Created with Sketch.</desc>
<g id="Page-1">
	<g id="Typo-Copy">
		<g id="pet" transform="translate(3.000000, 3.000000)">
			<g id="dog-food" transform="translate(0.000000, 14.702381)">
				<g id="Capa_1">
					<g id="Group">
						<path id="Shape" d="M94.8,53.2l-6.9-30.3c0-0.1,0-0.1-0.1-0.2c-0.5-1.9-3.1-3.4-8-4.6
							c-0.9-4.9-5.3-8.7-10.5-8.7c-0.3,0-0.7,0-1,0c-1.8-3.5-5.5-5.8-9.5-5.8c-1.2,0-2.4,0.2-3.6,0.6C53.6,1.7,50.7,0,47.4,0
							c-3.2,0-6.2,1.7-7.9,4.3c-1.1-0.4-2.4-0.6-3.6-0.6c-4,0-7.7,2.3-9.5,5.8c-0.3,0-0.7,0-1,0c-5.2,0-9.5,3.8-10.5,8.7
							c-5,1.2-7.6,2.7-8,4.7c0,0,0,0,0,0.1L0,53.2c0,0.1,0,0.2,0,0.4c0,3.2,4.9,6,14.7,8.4c9.4,2.3,21,3.6,32.8,3.6
							c11.7,0,23.4-1.3,32.8-3.6c9.7-2.4,14.7-5.2,14.7-8.4C94.8,53.4,94.8,53.3,94.8,53.2L94.8,53.2z M79.9,21.6
							c3.1,0.9,4.2,1.6,4.6,1.9c-0.4,0.4-1.8,1.3-6.1,2.3C79.2,24.5,79.7,23.1,79.9,21.6L79.9,21.6z M25.5,12.8
							c0.5,0,1.1,0.1,1.6,0.2c0.8,0.2,1.6-0.3,1.9-1C30.1,9,32.8,7,35.9,7c1.2,0,2.5,0.3,3.5,0.9c0.4,0.2,0.9,0.3,1.3,0.1
							c0.4-0.2,0.8-0.5,1-0.9c1-2.3,3.2-3.8,5.6-3.8c2.5,0,4.7,1.5,5.6,3.8c0.2,0.4,0.5,0.8,1,0.9c0.4,0.2,0.9,0.1,1.3-0.1
							C56.4,7.3,57.7,7,58.9,7c3.1,0,5.9,2,6.9,4.9c0.3,0.8,1.1,1.2,1.9,1c0.5-0.1,1.1-0.2,1.6-0.2c4.1,0,7.3,3.3,7.4,7.4
							c0.1,2.8-1.9,5.3-3.9,6.7c-7,1.1-16,1.6-25.4,1.6c-9.2,0-18-0.6-24.9-1.6c-2.6-1.2-4.4-3.9-4.4-6.8
							C18.1,16.1,21.4,12.8,25.5,12.8L25.5,12.8z M14.9,21.6c0.2,1.5,0.7,3,1.5,4.2c-4.3-1-5.7-1.9-6.1-2.3
							C10.7,23.2,11.8,22.4,14.9,21.6L14.9,21.6z M78.6,58.9c-9,2.1-20.1,3.3-31.2,3.3s-22.2-1.2-31.2-3.3
							c-8.9-2.1-12.4-4.4-12.9-5.3l6.1-26.7c0.6,0.4,1.2,0.6,1.6,0.7c2.1,0.8,5,1.6,8.7,2.2c7.4,1.3,17.3,2,27.8,2s20.3-0.7,27.8-2
							c3.7-0.6,6.6-1.4,8.7-2.2c0.3-0.1,0.9-0.4,1.6-0.7l6.1,26.7C91.1,54.5,87.5,56.8,78.6,58.9L78.6,58.9z"/>
						<path id="Shape_1_" d="M67.5,33.1c-3.8,0-7,2.8-7.6,6.5H35c-0.6-3.7-3.8-6.5-7.6-6.5c-4.3,0-7.7,3.5-7.7,7.7
							c0,1.7,0.6,3.3,1.6,4.7c-1,1.3-1.6,3-1.6,4.7c0,4.3,3.5,7.7,7.7,7.7c3.8,0,7-2.8,7.6-6.5h24.9c0.6,3.7,3.8,6.5,7.6,6.5
							c4.3,0,7.7-3.5,7.7-7.7c0-1.7-0.6-3.3-1.6-4.7c1-1.3,1.6-3,1.6-4.7C75.2,36.6,71.7,33.1,67.5,33.1L67.5,33.1z M70.3,46.8
							c1,0.8,1.6,2.1,1.6,3.4c0,2.4-2,4.4-4.4,4.4c-2.4,0-4.4-2-4.4-4.4c0-0.1,0-0.2,0-0.3c0-0.5-0.1-0.9-0.4-1.2
							c-0.3-0.3-0.7-0.5-1.2-0.5h-28c-0.5,0-0.9,0.2-1.2,0.5c-0.3,0.3-0.5,0.8-0.4,1.2c0,0.1,0,0.2,0,0.3c0,2.4-2,4.4-4.4,4.4
							c-2.4,0-4.4-2-4.4-4.4c0-1.3,0.6-2.6,1.6-3.4c0.4-0.3,0.6-0.8,0.6-1.3s-0.2-1-0.6-1.3c-1-0.8-1.6-2.1-1.6-3.4
							c0-2.4,2-4.4,4.4-4.4c2.4,0,4.4,2,4.4,4.4c0,0.1,0,0.2,0,0.3c0,0.5,0.1,0.9,0.4,1.2c0.3,0.3,0.7,0.5,1.2,0.5h28
							c0.5,0,0.9-0.2,1.2-0.5c0.3-0.3,0.5-0.8,0.4-1.2c0-0.1,0-0.2,0-0.3c0-2.4,2-4.4,4.4-4.4c2.4,0,4.4,2,4.4,4.4
							c0,1.3-0.6,2.6-1.6,3.4c-0.4,0.3-0.6,0.8-0.6,1.3C69.7,46,69.9,46.5,70.3,46.8L70.3,46.8z"/>
					</g>
				</g>
			</g>
		</g>
	</g>
</g>
</svg>
