<?xml version="1.0" encoding="utf-8"?>
<!-- Generator: Adobe Illustrator 18.0.0, SVG Export Plug-In . SVG Version: 6.00 Build 0)  -->
<!DOCTYPE svg PUBLIC "-//W3C//DTD SVG 1.1//EN" "http://www.w3.org/Graphics/SVG/1.1/DTD/svg11.dtd">
<svg version="1.1" id="Layer_1" xmlns="http://www.w3.org/2000/svg" xmlns:xlink="http://www.w3.org/1999/xlink" x="0px" y="0px"
	 viewBox="0 0 100 100" enable-background="new 0 0 100 100" xml:space="preserve">
<title>Typo Copy</title>
<desc>Created with Sketch.</desc>
<g id="Page-1">
	<g id="Typo-Copy">
		<g id="pet" transform="translate(3.000000, 3.000000)">
			<g id="arrows-10" transform="translate(0.000000, 4.000000)">
				<g id="Capa_1">
					<g id="Group">
						<path id="Shape" d="M0,44.3C0,21.1,18.9,2.2,42.2,2.2s42.2,18.9,42.2,42.2c0,1.3-1.1,2.4-2.4,2.4
							c-1.3,0-2.4-1.1-2.4-2.4C79.5,23.7,62.7,7,42.1,7C21.6,7,4.8,23.7,4.8,44.3s16.7,37.3,37.3,37.3c13.2,0,25.5-7.1,32.2-18.4
							c0.7-1.1,2.2-1.5,3.3-0.9c1.1,0.7,1.5,2.1,0.9,3.3C70.9,78.5,57,86.5,42.2,86.5C18.9,86.5,0,67.6,0,44.3z"/>
						<path id="Shape_1_" fill="#31ACB8" d="M80.7,46.4l-15.1-8.9c-1.1-0.7-1.5-2.2-0.8-3.3c0.7-1.1,2.2-1.5,3.3-0.8l13.2,7.8
							L89.7,29c0.8-1.1,2.3-1.4,3.4-0.6c1.1,0.8,1.4,2.3,0.6,3.4l-9.8,14c-0.5,0.7-1.2,1-2,1C81.5,46.7,81.1,46.6,80.7,46.4z"/>
					</g>
				</g>
			</g>
		</g>
	</g>
</g>
</svg>
