<?xml version="1.0" encoding="utf-8"?>
<!-- Generator: Adobe Illustrator 18.0.0, SVG Export Plug-In . SVG Version: 6.00 Build 0)  -->
<!DOCTYPE svg PUBLIC "-//W3C//DTD SVG 1.1//EN" "http://www.w3.org/Graphics/SVG/1.1/DTD/svg11.dtd">
<svg version="1.1" id="Layer_1" xmlns="http://www.w3.org/2000/svg" xmlns:xlink="http://www.w3.org/1999/xlink" x="0px" y="0px"
	 viewBox="0 0 100 100" enable-background="new 0 0 100 100" xml:space="preserve">
<title>Typo Copy</title>
<desc>Created with Sketch.</desc>
<g id="Page-1">
	<g id="Typo-Copy">
		<g id="pet" transform="translate(3.000000, 3.000000)">
			<g id="pet-lotion" transform="translate(7.916667, 0.000000)">
				<g id="Capa_1">
					<g id="Group">
						<path id="Shape" d="M52.5,73.9c-5.7,0-10.3,4.3-10.3,9.5c0,2.5,1.5,4,3.9,4c1.1,0,2.4-0.3,3.6-0.6
							c1-0.2,2-0.5,2.7-0.5c0.6,0,1.6,0.2,2.5,0.4c1.2,0.3,2.5,0.6,3.7,0.6c2.5,0,4-1.5,4-4C62.7,78.2,58.1,73.9,52.5,73.9
							L52.5,73.9z M59.4,84.1c0,0-0.1,0.1-0.6,0.1c-0.8,0-1.9-0.3-3-0.5c-1.2-0.3-2.3-0.5-3.3-0.5c-1.1,0-2.3,0.3-3.5,0.6
							c-1,0.2-2.1,0.5-2.8,0.5c-0.4,0-0.6-0.1-0.6-0.1c0,0-0.1-0.2-0.1-0.6c0-3.5,3.1-6.3,7-6.3c3.8,0,7,2.8,7,6.3
							C59.5,83.9,59.4,84,59.4,84.1L59.4,84.1z"/>
						<path id="Shape_1_" d="M47.6,69.8c0-2.9-2-5.2-4.5-5.2c-2.5,0-4.5,2.3-4.5,5.2c0,2.9,2,5.2,4.5,5.2
							C45.6,75,47.6,72.6,47.6,69.8L47.6,69.8z M42,69.8c0-1.1,0.6-2,1.2-2c0.6,0,1.2,0.8,1.2,2c0,1.1-0.6,2-1.2,2S42,70.9,42,69.8
							L42,69.8z"/>
						<path id="Shape_2_" d="M52.6,72.6c2.5,0,4.5-2.3,4.5-5.2c0-2.9-2-5.2-4.5-5.2c-2.5,0-4.5,2.3-4.5,5.2
							C48.1,70.3,50.1,72.6,52.6,72.6L52.6,72.6z M52.6,65.5c0.6,0,1.2,0.8,1.2,2c0,1.1-0.6,2-1.2,2c-0.6,0-1.2-0.8-1.2-2
							C51.4,66.3,52,65.5,52.6,65.5L52.6,65.5z"/>
						<path id="Shape_3_" d="M62,64.5c-2.5,0-4.5,2.3-4.5,5.2c0,2.9,2,5.2,4.5,5.2c2.5,0,4.5-2.3,4.5-5.2
							C66.4,66.9,64.4,64.5,62,64.5L62,64.5z M62,71.7c-0.6,0-1.2-0.8-1.2-2c0-1.1,0.6-2,1.2-2c0.6,0,1.2,0.8,1.2,2
							C63.1,70.9,62.5,71.7,62,71.7L62,71.7z"/>
						<path id="Shape_4_" d="M66.7,25.4H65v-4.7c0-2.2-1.8-4-4-4h-6.5v-4.6h2.7c2.2,0,4-1.8,4-4V4c0-2.2-1.8-4-4-4
							H41.1l-0.4,0c-2.3,0-5.8,0-8.8,2.2c-3.4,2.5-5,7-5,13.8c0,0.9,0.7,1.6,1.6,1.6h5.7c0.9,0,1.6-0.7,1.6-1.6
							c0-1.6,0.6-2.7,1.8-3.3c1.1-0.5,2.2-0.5,2.3-0.5c0,0,0,0,0,0h11.2v4.6h-6.5c-2.2,0-4,1.8-4,4v4.7h-1.7
							c-6.5,0-11.9,5.3-11.9,11.9V92c0,0.9,0.7,1.6,1.6,1.6h48c0.9,0,1.6-0.7,1.6-1.6V37.3C78.6,30.8,73.3,25.4,66.7,25.4L66.7,25.4
							z M40,8.9c-2.3,0-6.3,1.2-7.2,5.5h-2.6C30.8,3.3,36.5,3.3,40.7,3.3l16.6,0C57.7,3.3,58,3.6,58,4v4.2c0,0.4-0.3,0.7-0.7,0.7
							L40,8.9L40,8.9L40,8.9z M44.2,20.7c0-0.4,0.3-0.7,0.7-0.7H61c0.4,0,0.7,0.3,0.7,0.7v4.7H44.2V20.7L44.2,20.7z M39.2,28.7h27.6
							c4.7,0,8.6,3.8,8.6,8.6v4.5c-3.3-0.2-11.9-0.1-19.4,6.4c-4.5,3.9-9.8,5.8-14.8,5.2c-4.2-0.5-7.9-2.7-10.5-6.3v-9.9
							C30.6,32.6,34.4,28.7,39.2,28.7L39.2,28.7z M30.6,90.4V52.1c2.8,2.6,6.3,4.2,10.1,4.6c0.7,0.1,1.5,0.1,2.2,0.1
							c5.2,0,10.5-2.1,15.1-6.1c6.7-5.8,14.6-5.8,17.2-5.6v45.3H30.6L30.6,90.4z"/>
						<path id="Shape_5_" d="M11.6,31.3c3.1,0,5.7-2.6,5.7-5.7s-2.6-5.7-5.7-5.7s-5.7,2.6-5.7,5.7
							S8.4,31.3,11.6,31.3L11.6,31.3z M11.6,23.2c1.3,0,2.4,1.1,2.4,2.4S12.9,28,11.6,28S9.1,27,9.1,25.6S10.2,23.2,11.6,23.2
							L11.6,23.2z"/>
						<path id="Shape_6_" d="M13.3,45.8c-5.4,0-9.7,4.4-9.7,9.7s4.4,9.7,9.7,9.7s9.7-4.4,9.7-9.7
							S18.6,45.8,13.3,45.8L13.3,45.8z M13.3,62c-3.6,0-6.5-2.9-6.5-6.5S9.7,49,13.3,49s6.5,2.9,6.5,6.5S16.8,62,13.3,62L13.3,62z"
							/>
						<path id="Shape_7_" d="M5.5,75.1c-3,0-5.5,2.5-5.5,5.5s2.5,5.5,5.5,5.5s5.5-2.5,5.5-5.5S8.5,75.1,5.5,75.1
							L5.5,75.1z M5.5,82.8c-1.2,0-2.2-1-2.2-2.2c0-1.2,1-2.2,2.2-2.2s2.2,1,2.2,2.2C7.7,81.8,6.7,82.8,5.5,82.8L5.5,82.8z"/>
					</g>
				</g>
			</g>
		</g>
	</g>
</g>
</svg>
