<?xml version="1.0" encoding="utf-8"?>
<!-- Generator: Adobe Illustrator 18.0.0, SVG Export Plug-In . SVG Version: 6.00 Build 0)  -->
<!DOCTYPE svg PUBLIC "-//W3C//DTD SVG 1.1//EN" "http://www.w3.org/Graphics/SVG/1.1/DTD/svg11.dtd">
<svg version="1.1" id="Layer_1" xmlns="http://www.w3.org/2000/svg" xmlns:xlink="http://www.w3.org/1999/xlink" x="0px" y="0px"
	 viewBox="0 0 100 100" enable-background="new 0 0 100 100" xml:space="preserve">
<title>Typo Copy</title>
<desc>Created with Sketch.</desc>
<g id="Page-1">
	<g id="Typo-Copy">
		<g id="pet" transform="translate(3.000000, 3.000000)">
			<g id="syringe">
				<g id="Capa_1">
					<g id="Group">
						<path id="Shape" d="M41.2,47.4c0,3.3,2.2,5.9,5,5.9c2.8,0,5-2.7,5-5.9c0-3.3-2.2-5.9-5-5.9
							C43.4,41.5,41.2,44.2,41.2,47.4L41.2,47.4z M47.9,47.4c0,1.5-0.9,2.6-1.7,2.6c-0.8,0-1.7-1.1-1.7-2.6c0-1.5,0.9-2.6,1.7-2.6
							C47,44.8,47.9,45.9,47.9,47.4L47.9,47.4z"/>
						<path id="Shape_1_" d="M52.9,43.6c0,3.3,2.2,5.9,5,5.9c2.8,0,5-2.7,5-5.9s-2.2-5.9-5-5.9
							C55.2,37.7,52.9,40.3,52.9,43.6L52.9,43.6z M59.6,43.6c0,1.5-0.9,2.6-1.7,2.6c-0.8,0-1.7-1.1-1.7-2.6s0.9-2.6,1.7-2.6
							C58.7,41,59.6,42,59.6,43.6L59.6,43.6z"/>
						<path id="Shape_2_" d="M92.6,19.6L74.2,1.2C73.4,0.4,72.4,0,71.3,0c-1.1,0-2.1,0.4-2.8,1.2l-2.3,2.3
							c-0.8,0.8-1.2,1.8-1.2,2.8s0.4,2.1,1.2,2.8l8,8l-3.4,3.4l-8-8c-0.8-0.8-1.8-1.2-2.8-1.2c-1.1,0-2.1,0.4-2.8,1.2L24.6,45.1
							c-0.8,0.8-1.2,1.8-1.2,2.8c0,1.1,0.4,2.1,1.2,2.8l3.6,3.6l-3.4,3.4c-0.8,0.8-1.2,1.8-1.2,2.8c0,1.1,0.4,2.1,1.2,2.8l1.6,1.6
							L0.5,90.9c-0.6,0.6-0.6,1.7,0,2.3c0.3,0.3,0.7,0.5,1.2,0.5c0.4,0,0.8-0.2,1.2-0.5l25.9-25.9l1.6,1.6c0.8,0.8,1.8,1.2,2.8,1.2
							c1.1,0,2.1-0.4,2.8-1.2l3.4-3.4l3.6,3.6c0.8,0.8,1.8,1.2,2.8,1.2c1.1,0,2.1-0.4,2.8-1.2l2.2-2.2c1.1-0.1,2.3-0.4,3.4-0.6
							c1.2-0.3,2.4-0.6,3.3-0.6c0.8,0,1.9,0.3,3.1,0.5c1.5,0.3,3,0.7,4.3,0.7c2.8,0,4.5-1.6,4.5-4.5c0-6.1-5.3-11.1-11.9-11.1
							c-6.6,0-11.9,5-11.9,11.1c0,1.6,0.5,2.8,1.4,3.5l-0.8,0.8C46.1,67,45.9,67,45.8,67c-0.1,0-0.3,0-0.5-0.2L26.9,48.4
							c-0.3-0.3-0.3-0.7,0-1l7.3-7.3l2,2c0.3,0.3,0.7,0.5,1.2,0.5s0.8-0.2,1.2-0.5c0.6-0.6,0.6-1.7,0-2.3l-2-2l3.6-3.6l2,2
							c0.3,0.3,0.7,0.5,1.2,0.5c0.4,0,0.8-0.2,1.2-0.5c0.6-0.6,0.6-1.7,0-2.3l-2-2L54,20.4l19.3,19.3l-2,2c0,0,0,0,0,0
							c-0.5-0.2-1.1-0.3-1.6-0.3c-2.8,0-5,2.7-5,5.9c0,3.3,2.2,5.9,5,5.9c2.8,0,5-2.7,5-5.9c0-1.3-0.3-2.4-0.9-3.4l7.5-7.5
							c1.6-1.6,1.6-4.1,0-5.6l-8-8l3.4-3.4l8,8c0.8,0.8,1.8,1.2,2.8,1.2c1.1,0,2.1-0.4,2.8-1.2l2.3-2.3
							C94.1,23.6,94.1,21.1,92.6,19.6L92.6,19.6z M57.6,54.8c4.7,0,8.6,3.5,8.6,7.7c0,1-0.2,1.1-1.2,1.1c-1,0-2.3-0.3-3.6-0.6
							c-1.4-0.3-2.7-0.6-3.8-0.6c-1.3,0-2.7,0.3-4.1,0.7c-1.2,0.3-2.5,0.6-3.4,0.6c-0.5,0-0.8-0.1-0.9-0.2c-0.1-0.1-0.2-0.4-0.2-1
							C49,58.2,52.8,54.8,57.6,54.8L57.6,54.8z M33.6,66.6c-0.2,0.2-0.4,0.2-0.5,0.2c-0.1,0-0.3,0-0.5-0.2l-5.5-5.5
							c-0.2-0.2-0.2-0.4-0.2-0.5c0-0.1,0-0.3,0.2-0.5l3.4-3.4l6.5,6.5L33.6,66.6L33.6,66.6z M69.6,50c-0.8,0-1.7-1.1-1.7-2.6
							c0-1.5,0.9-2.6,1.7-2.6c0.8,0,1.7,1.1,1.7,2.6C71.3,49,70.4,50,69.6,50L69.6,50z M78.9,34.2l-3.2,3.2L56.3,18l3.2-3.2
							c0.3-0.3,0.7-0.3,1,0l18.4,18.4C79.1,33.5,79.1,34,78.9,34.2L78.9,34.2z M90.2,22.9l-2.3,2.3c-0.2,0.2-0.4,0.2-0.5,0.2
							s-0.3,0-0.5-0.2L68.6,6.7c-0.2-0.2-0.2-0.4-0.2-0.5c0-0.1,0-0.3,0.2-0.5l2.3-2.3c0.2-0.2,0.4-0.2,0.5-0.2s0.3,0,0.5,0.2
							l18.4,18.4C90.5,22.2,90.5,22.6,90.2,22.9L90.2,22.9z"/>
					</g>
				</g>
			</g>
		</g>
	</g>
</g>
</svg>
