<?xml version="1.0" encoding="utf-8"?>
<!-- Generator: Adobe Illustrator 18.0.0, SVG Export Plug-In . SVG Version: 6.00 Build 0)  -->
<!DOCTYPE svg PUBLIC "-//W3C//DTD SVG 1.1//EN" "http://www.w3.org/Graphics/SVG/1.1/DTD/svg11.dtd">
<svg version="1.1" id="Layer_1" xmlns="http://www.w3.org/2000/svg" xmlns:xlink="http://www.w3.org/1999/xlink" x="0px" y="0px"
	 viewBox="0 0 100 100" enable-background="new 0 0 100 100" xml:space="preserve">
<title>Typo Copy</title>
<desc>Created with Sketch.</desc>
<g id="Page-1">
	<g id="Typo-Copy">
		<g id="pet" transform="translate(3.000000, 3.000000)">
			<g id="cat-toy" transform="translate(6.785714, 0.000000)">
				<g id="Capa_1">
					<g>
						<path id="Shape" d="M77.3,9.5l-8.8-9.1c-0.6-0.6-1.6-0.6-2.2,0s-0.6,1.6,0,2.3l8.8,9.1c3.1,3.2,3.1,8.3,0,11.5
							c-1.5,1.5-3.4,2.3-5.6,2.3c-2.1,0-4.1-0.9-5.6-2.5L52.4,11.3c-4.3-4.4-11.2-4.4-15.4,0c-4.3,4.4-4.3,11.6,0,16l4.1,4.3
							c-3.2-1.2-6.6-1.8-10.1-1.8c-8.2,0-16,3.3-21.8,9.4c-12,12.5-12,32.8,0,45.2c5.8,6,13.6,9.4,21.8,9.4c8.2,0,16-3.3,21.8-9.4
							c5.8-6,9-14.1,9-22.6s-3.2-16.6-9-22.6c-0.1-0.1-0.3-0.3-0.4-0.4L39.2,25c-3.1-3.2-3.1-8.3,0-11.5c3.1-3.2,8-3.2,11.1,0
							l11.5,11.9c2.1,2.1,4.8,3.3,7.7,3.4c2.9,0,5.7-1.1,7.8-3.2C81.5,21.2,81.5,14,77.3,9.5L77.3,9.5z M46.1,37.6
							c-3.7,0.3-7.3,1.1-10.8,2.4c-0.1,0-0.1-0.1-0.2-0.1c-6.7-2.2-13.7-2.7-20.6-1.4C19.3,34.9,25,33,31,33
							C36.5,33,41.7,34.6,46.1,37.6L46.1,37.6z M14.8,56.5c-3.8-0.1-7.6,0.3-11.3,1.2c0.2-1.7,0.6-3.4,1.1-5c0,0,0.1,0,0.1,0
							c5.4-2,10.1-2.7,15.1-2.3c0,0-0.1,0.1-0.1,0.1C17.9,52.3,16.2,54.3,14.8,56.5L14.8,56.5z M22.9,47.4
							C22.8,47.4,22.8,47.4,22.9,47.4C17.2,46.6,12,47,6.2,48.8c1-2.1,2.3-4.1,3.8-5.9c6.5-2,14.1-2.3,20.8-0.8
							C28,43.5,25.3,45.3,22.9,47.4L22.9,47.4z M3.2,61c3.1-0.9,6.4-1.3,9.6-1.4C9.9,64.9,8,70.8,7.4,77C4.5,72.2,3.1,66.6,3.2,61
							L3.2,61z M10.3,80.9c0.2-10.7,4.3-20.7,11.6-28.3c7.4-7.6,17.6-11.9,28-12c0.3,0.2,0.5,0.5,0.8,0.8c1.1,1.1,2,2.3,2.9,3.5
							c-20.7,1.7-37.2,18.6-39.1,40c-1.1-0.8-2.1-1.8-3.1-2.8C11,81.8,10.6,81.4,10.3,80.9L10.3,80.9z M57.4,52.7
							c-9.3,1.3-17.5,5.2-23.8,11.5C27,70.7,22.9,79.2,21.9,89c-1.6-0.6-3.1-1.3-4.5-2.1c1-21.2,17.5-38.1,38-38.9
							C56.2,49.5,56.8,51,57.4,52.7L57.4,52.7z M56.6,73c-2.3-5.3-5.7-10.1-9.8-14.1c2.1-0.9,4.2-1.7,6.5-2.2
							c2.1,2.8,3.9,5.9,5.2,9.2C58.1,68.4,57.5,70.8,56.6,73L56.6,73z M58.7,59.3c-0.6-1.1-1.3-2.2-2.1-3.3c0.5-0.1,1.1-0.2,1.6-0.2
							C58.4,56.9,58.6,58.1,58.7,59.3L58.7,59.3z M42.8,73.1c2.7,3.1,4.9,6.5,6.6,10.3c-4.4,4.1-9.9,6.5-15.8,7.1
							C34.4,83.2,37.7,76.9,42.8,73.1L42.8,73.1z M30.4,90.6c-1.9,0-3.7-0.3-5.5-0.7c0.9-9.2,4.7-17.3,10.7-23.2
							c1.8,1.3,3.5,2.6,5,4.2C35,75.2,31.3,82.5,30.4,90.6L30.4,90.6z M51.6,81c-3.2-6.6-7.9-12.3-13.7-16.6c1.8-1.5,3.8-2.9,5.9-4
							c4.9,4.4,8.7,10,11,16.3C53.8,78.2,52.8,79.7,51.6,81L51.6,81z"/>
					</g>
				</g>
			</g>
		</g>
	</g>
</g>
</svg>
