<?xml version="1.0" encoding="utf-8"?>
<!-- Generator: Adobe Illustrator 18.0.0, SVG Export Plug-In . SVG Version: 6.00 Build 0)  -->
<!DOCTYPE svg PUBLIC "-//W3C//DTD SVG 1.1//EN" "http://www.w3.org/Graphics/SVG/1.1/DTD/svg11.dtd">
<svg version="1.1" id="Layer_1" xmlns="http://www.w3.org/2000/svg" xmlns:xlink="http://www.w3.org/1999/xlink" x="0px" y="0px"
	 viewBox="0 201.5 451 47.3" enable-background="new 0 201.5 451 47.3" xml:space="preserve">
<g>
	<path fill="#FFFFFF" d="M414,202.9c-17.6,0-26.6,10.4-34.7,19.4c-7.7,9-14.4,16.7-28,16.7s-20.3-7.7-28-16.7
		c-7.7-9-16.7-19.4-34.7-19.4c-17.6,0-26.6,10.4-34.7,19.4c-7.7,9-14.4,16.7-28,16.7s-20.3-7.7-28-16.7c-8.1-9-17.1-19.4-34.7-19.4
		s-26.6,10.4-34.7,19.4c-7.7,9-14.4,16.7-28,16.7s-20.3-7.7-28-16.7c-8.1-9-17.1-19.4-34.7-19.4c-2.7,0-4.5,1.8-4.5,4.5
		s1.8,4.5,4.5,4.5c13.5,0,20.3,7.7,28,16.7c8.1,9,17.1,19.4,34.7,19.4s26.6-10.4,34.7-19.4c7.7-9,14.4-16.7,28-16.7
		s20.3,7.7,28,16.7c8.1,9,17.1,19.4,34.7,19.4s26.6-10.4,34.7-19.4c7.7-9,14.4-16.7,28-16.7c13.5,0,20.3,7.7,28,16.7
		c8.1,9,17.1,19.4,34.7,19.4s26.6-10.4,34.7-19.4c7.7-9,14.4-16.7,28-16.7c2.7,0,4.5-1.8,4.5-4.5S416.7,202.9,414,202.9z"/>
</g>
</svg>
