<?xml version="1.0" encoding="UTF-8"?>
<svg width="476px" height="12px" viewBox="0 0 476 12" version="1.1" xmlns="http://www.w3.org/2000/svg" xmlns:xlink="http://www.w3.org/1999/xlink">
    <!-- Generator: sketchtool 49.3 (51167) - http://www.bohemiancoding.com/sketch -->
    <title>C3A2B6AC-D210-456D-814C-C982CCFA1F0C</title>
    <desc>Created with sketchtool.</desc>
    <defs></defs>
    <g id="Pet" stroke="none" stroke-width="1" fill="none" fill-rule="evenodd">
        <g id="Home" transform="translate(-3.000000, -988.000000)" fill="#FBF8F2">
            <g id="header" transform="translate(0.000000, -75.000000)">
                <g id="Group-2" transform="translate(960.000000, 1069.000000) rotate(-180.000000) translate(-960.000000, -1069.000000) translate(0.000000, 1063.000000)">
                    <g id="wave-2" transform="translate(1679.915745, 5.811108) rotate(-180.000000) translate(-1679.915745, -5.811108) translate(1440.000000, -0.000000)">
                        <path d="M440.691488,-8.8817842e-16 L480.55308,-8.8817842e-16 C471.695502,-8.8817842e-16 470.311972,11.8577143 461.452734,11.8577143 C452.680104,11.8577143 450.6947,0.226351492 440.438686,0.00325099628 C431.806685,0.226353688 430.365416,11.8577143 421.591142,11.8577143 C412.818512,11.8577143 410.833108,0.226351492 400.577094,0.00325099628 C391.945093,0.226353688 390.503824,11.8577143 381.72955,11.8577143 C372.956921,11.8577143 370.971517,0.226351492 360.715502,0.00325099628 C352.083501,0.226353688 350.642232,11.8577143 341.867958,11.8577143 C333.095329,11.8577143 331.109925,0.226351492 320.853911,0.00325099628 C312.22191,0.226353688 310.78064,11.8577143 302.006367,11.8577143 C293.233737,11.8577143 291.248333,0.226351492 280.992319,0.00325099628 C272.360318,0.226353688 270.919049,11.8577143 262.144775,11.8577143 C253.372146,11.8577143 251.386742,0.226351492 241.130727,0.00325099628 C232.498726,0.226353688 231.057457,11.8577143 222.283183,11.8577143 C213.510554,11.8577143 211.52515,0.226351492 201.269136,0.00325099628 C192.637135,0.226353688 191.195865,11.8577143 182.421592,11.8577143 C173.648962,11.8577143 171.663558,0.226351492 161.407544,0.00325099628 C152.775543,0.226353688 151.334274,11.8577143 142.56,11.8577143 C133.78737,11.8577143 131.801967,0.226351492 121.545952,0.00325099628 C112.913951,0.226353688 111.472682,11.8577143 102.698408,11.8577143 C93.9257788,11.8577143 91.9403748,0.226351492 81.6843606,0.00325099628 C73.0523595,0.226353688 71.6110903,11.8577143 62.8368166,11.8577143 C54.0641871,11.8577143 52.0787831,0.226351492 41.8227689,0.00325099628 C33.1907678,0.226353688 31.7494986,11.8577143 22.9752249,11.8577143 C14.1176471,11.8577143 12.1793772,2.66453526e-15 1.66089965,2.66453526e-15 L42.0755709,2.66453526e-15 L81.9371626,2.66453526e-15 L121.798754,2.66453526e-15 L161.660346,2.66453526e-15 L201.521938,2.66453526e-15 L241.383529,2.66453526e-15 L281.245121,2.66453526e-15 L321.106713,2.66453526e-15 L360.968304,-8.8817842e-16 L400.829896,2.66453526e-15 L440.691488,2.66453526e-15 Z" id="Combined-Shape" transform="translate(241.106990, 5.928857) rotate(-180.000000) translate(-241.106990, -5.928857) " style="fill: #F5B700"></path>
                    </g>
                </g>
            </g>
        </g>
    </g>
</svg>